<?xml version="1.0" standalone="no"?><!DOCTYPE svg PUBLIC "-//W3C//DTD SVG 1.1//EN" "http://www.w3.org/Graphics/SVG/1.1/DTD/svg11.dtd"><svg t="1553587785597" class="icon" style="" viewBox="0 0 1024 1024" version="1.1" xmlns="http://www.w3.org/2000/svg" p-id="1778" xmlns:xlink="http://www.w3.org/1999/xlink" width="200" height="200"><defs><style type="text/css"></style></defs><path d="M365.714286 512q0-30.285714-21.428571-51.714286t-51.714286-21.428571-51.714286 21.428571-21.428571 51.714286 21.428571 51.714286 51.714286 21.428571 51.714286-21.428571 21.428571-51.714286zm219.428571 0q0-30.285714-21.428571-51.714286t-51.714286-21.428571-51.714286 21.428571-21.428571 51.714286 21.428571 51.714286 51.714286 21.428571 51.714286-21.428571 21.428571-51.714286zm219.428571 0q0-30.285714-21.428571-51.714286t-51.714286-21.428571-51.714286 21.428571-21.428571 51.714286 21.428571 51.714286 51.714286 21.428571 51.714286-21.428571 21.428571-51.714286zm219.428571 0q0 99.428571-68.571429 183.714286t-186.285714 133.142857-257.142857 48.857143q-62.857143 0-120.571429-10.285714-98.857143 98.857143-248.571429 130.857143-29.714286 5.714286-49.142857 7.428571-6.857143 0.571429-12.571429-3.428571t-7.428571-10.285714q-2.285714-8.571429 11.428571-21.142857 2.857143-2.857143 13.428571-12.285714t14.571429-13.428571 13.428571-14.571429 13.714286-18 11.714286-21.142857 11.428571-27.428571 8.285714-32.857143 7.142857-41.428571q-83.428571-51.428571-131.142857-123.714286t-47.714286-154q0-99.428571 68.571429-183.714286t186.285714-133.142857 257.142857-48.857143 257.142857 48.857143 186.285714 133.142857 68.571429 183.714286z" fill="#FFC107" p-id="1779"></path></svg>