<svg width="20" height="32" viewBox="0 0 20 32" xmlns="http://www.w3.org/2000/svg" xmlns:xlink="http://www.w3.org/1999/xlink"><title>Icon/Remarks</title><defs><path d="M16 25.252c-.257 0-.546-.128-.737-.318L.32 10.094A1.09 1.09 0 0 1 0 9.361c0-.255.13-.543.32-.732l1.603-1.592c.193-.192.45-.318.737-.318.256 0 .546.128.737.318L16 19.555 28.603 7.038c.193-.192.48-.318.737-.318s.546.128.737.318L31.68 8.63c.193.191.32.477.32.732 0 .254-.13.542-.32.731L16.737 24.934c-.193.192-.48.318-.737.318" id="a"/></defs><g transform="matrix(0 1 1 0 -6 0)" fill="none" fill-rule="evenodd"><mask id="b" fill="#fff"><use xlink:href="#a"/></mask><use fill="#020303" xlink:href="#a"/><g mask="url(#b)" fill="#B4B6B8" fill-rule="nonzero"><path d="M0 0h32v32H0z"/></g></g></svg>