<svg width="100" height="100" viewBox="0 0 100 100" xmlns="http://www.w3.org/2000/svg"><title>Group 6</title><g fill="none" fill-rule="evenodd"><circle fill="#37B442" fill-rule="nonzero" cx="50" cy="50" r="50"/><path d="M63.257 57.967c2 1.99 4 3.98 5.989 5.98 1.665 1.675 1.654 3.727-.02 5.424-1.131 1.141-2.336 2.23-3.404 3.424-1.56 1.748-3.508 2.314-5.749 2.188-3.256-.178-6.251-1.256-9.14-2.66-6.42-3.12-11.907-7.445-16.504-12.91-3.403-4.042-6.209-8.45-8.052-13.414-.9-2.398-1.54-4.859-1.34-7.466.125-1.602.722-2.974 1.905-4.094 1.278-1.215 2.482-2.482 3.739-3.718 1.633-1.612 3.685-1.612 5.33-.01 1.015.994 2.01 2.01 3.015 3.016.974.984 1.947 1.947 2.922 2.931 1.717 1.728 1.717 3.739.01 5.456-1.225 1.236-2.44 2.471-3.686 3.675-.324.325-.356.587-.188.985.827 1.968 2.01 3.717 3.34 5.35 2.68 3.289 5.707 6.21 9.32 8.482.774.482 1.633.838 2.44 1.278.408.23.69.157 1.026-.189a308.819 308.819 0 0 1 3.717-3.728c1.633-1.623 3.686-1.623 5.33 0zm-.194-8.654a1.964 1.964 0 0 1-2.206-1.37 13.314 13.314 0 0 0-3.328-5.525 13.31 13.31 0 0 0-5.943-3.457 1.958 1.958 0 0 1-1.426-2.16l.001-.008a1.961 1.961 0 0 1 2.462-1.617c2.89.786 5.51 2.306 7.67 4.467a17.311 17.311 0 0 1 4.317 7.17 1.959 1.959 0 0 1-1.545 2.5h-.002zM67.3 32.826c3.732 3.742 6.331 8.34 7.59 13.412a1.957 1.957 0 0 1-1.574 2.396 1.955 1.955 0 0 1-2.229-1.453 24.687 24.687 0 0 0-6.552-11.58c-3.425-3.416-7.66-5.723-12.34-6.723a1.951 1.951 0 0 1-1.513-2.184v-.006a1.96 1.96 0 0 1 2.35-1.644c5.41 1.155 10.306 3.82 14.268 7.782z" fill="#FEFEFE"/></g></svg>