<svg xmlns="http://www.w3.org/2000/svg" viewBox="0 0 200 200"><defs><style>.cls-1{fill:none;}.cls-2{fill:#37b442;}.cls-3{fill:#fff;}</style></defs><title>_icon</title><g id="Layer_1" data-name="Layer 1"><rect class="cls-1" width="200" height="200"/></g><g id="Layer_2" data-name="Layer 2"><circle class="cls-2" cx="100" cy="100" r="95"/><path class="cls-3" d="M120.1,57.61V43H84.33a7.62,7.62,0,0,0-7.56,7.66v73.5a7.62,7.62,0,0,0,7.56,7.66h52.76a7.62,7.62,0,0,0,7.56-7.66V68.75H131.38A11.22,11.22,0,0,1,120.1,57.61ZM94.41,86.23h0l14.11-15.14a3.09,3.09,0,0,1,4.39,0L127,86.22a3,3,0,0,1-.15,4.24,3.22,3.22,0,0,1-4.27-.12l-9-9.59v24.78a3,3,0,1,1-6,0V80.78l-8.82,9.53a3,3,0,1,1-4.36-4.08Zm39.11,33.19a3,3,0,0,1-3,3H90.9a3,3,0,0,1,0-6h39.64A3,3,0,0,1,133.52,119.42Z"/><path class="cls-3" d="M60.17,134.75v-70a7.47,7.47,0,0,0-4.82,7.07v73.5A7.62,7.62,0,0,0,62.91,153h52.76a7.55,7.55,0,0,0,7-4.58H73.74C63.33,148.42,60.17,146.53,60.17,134.75Z"/><path class="cls-3" d="M70.76,124.16V54.28a7.64,7.64,0,0,0-4.58,7v73.5a7.61,7.61,0,0,0,7.56,7.66H126.5a7.55,7.55,0,0,0,7-4.58H84.33C74.12,137.83,70.76,133.59,70.76,124.16Z"/><path class="cls-3" d="M131.38,61.67h9.29L126.11,46.49v10A5.22,5.22,0,0,0,131.38,61.67Z"/></g></svg>