<?xml version="1.0" standalone="no"?><!DOCTYPE svg PUBLIC "-//W3C//DTD SVG 1.1//EN" "http://www.w3.org/Graphics/SVG/1.1/DTD/svg11.dtd"><svg t="1555065652847" class="icon" style="" viewBox="0 0 1024 1024" version="1.1" xmlns="http://www.w3.org/2000/svg" p-id="1834" xmlns:xlink="http://www.w3.org/1999/xlink" width="200" height="200"><defs><style type="text/css"></style></defs><path d="M256 877.714286h512v-146.285715H256v146.285715z m0-365.714286h512V292.571429h-91.428571A54.857143 54.857143 0 0 1 621.714286 237.714286V146.285714H256v365.714286z m658.285714 36.571429c0-20.004571-16.566857-36.571429-36.571428-36.571429s-36.571429 16.566857-36.571429 36.571429 16.566857 36.571429 36.571429 36.571428 36.571429-16.566857 36.571428-36.571428z m73.142857 0v237.714285c0 9.728-8.557714 18.285714-18.285714 18.285715H841.142857v91.428571a54.857143 54.857143 0 0 1-54.857143 54.857143h-548.571428A54.857143 54.857143 0 0 1 182.857143 896V804.571429H54.857143a18.797714 18.797714 0 0 1-18.285714-18.285715V548.571429c0-60.013714 49.700571-109.714286 109.714285-109.714286h36.571429V128A54.857143 54.857143 0 0 1 237.714286 73.142857H621.714286c30.281143 0 72.009143 17.152 93.696 38.838857l86.857143 86.857143c21.723429 21.723429 38.838857 63.414857 38.838857 93.696v146.285714h36.571428c60.013714 0 109.714286 49.700571 109.714286 109.714286z" fill="#2c9838" p-id="1835"></path></svg>
