<?xml version="1.0" standalone="no"?><!DOCTYPE svg PUBLIC "-//W3C//DTD SVG 1.1//EN" "http://www.w3.org/Graphics/SVG/1.1/DTD/svg11.dtd"><svg t="1553759066626" class="icon" style="" viewBox="0 0 1024 1024" version="1.1" xmlns="http://www.w3.org/2000/svg" p-id="1721" xmlns:xlink="http://www.w3.org/1999/xlink" width="200" height="200"><defs><style type="text/css"></style></defs><path d="M220.2559721 217.62139264c-174.84750294 174.84750294-174.84750223 458.3314262 0 633.17892843 174.84677886 174.84677886 458.33070283 174.84677886 633.17820506-0.00072337 174.84677886-174.84677886 174.84605549-458.3314262 0-633.17748169C678.58667493 42.77461378 395.10275096 42.77461378 220.2559721 217.62139264zM792.27807295 789.03568006l-69.61121617-69.61121617c-105.2116844 105.2116844-274.7618085 107.79705983-376.8128663 5.74600203-37.10046375-37.10046375-57.60329427-81.47876323-71.04464112-128.40046923l70.68791282-1.07742072c8.99563074 28.1388413 24.98545053 58.46580969 48.17785291 81.65821207 76.56488516 76.56488516 203.70920748 74.58949257 282.60838295-4.30968289l-69.54030467-69.54030467 188.40751856-2.94065629L792.27807295 789.03568006zM798.84896383 471.61626128l-70.65245778 1.11142902c-8.99635411-28.13811793-25.01945883-58.49837125-48.21113784-81.69005027-76.53087616-76.53087616-203.71282575-74.59311083-282.61127784 4.30534126l69.61121617 69.61121617L278.54377968 467.79138211l2.87119223-188.40751786 69.57576042 69.57576042c105.20806684-105.20806684 274.76108513-107.79344157 376.81358968-5.74093702C764.93807068 380.35243491 785.47635696 424.76329525 798.84896383 471.61626128z" fill="#2c9838" p-id="1722"></path></svg>