<?xml version="1.0" standalone="no"?><!DOCTYPE svg PUBLIC "-//W3C//DTD SVG 1.1//EN" "http://www.w3.org/Graphics/SVG/1.1/DTD/svg11.dtd"><svg t="1553599490839" class="icon" style="" viewBox="0 0 1024 1024" version="1.1" xmlns="http://www.w3.org/2000/svg" p-id="1344" xmlns:xlink="http://www.w3.org/1999/xlink" width="200" height="200"><defs><style type="text/css"></style></defs><path d="M287.026374 877.714286h438.857143v-219.428572H287.026374v219.428572z m512 0h73.142857V365.714286q0-8-5.714285-22t-11.428572-19.714286l-160.571428-160.571429q-5.714286-5.714286-19.428572-11.428571t-22.285714-5.714286v237.714286q0 22.857143-16 38.857143t-38.857143 16H268.74066q-22.857143 0-38.857143-16t-16-38.857143V146.285714H140.74066v731.428572h73.142857v-237.714286q0-22.857143 16-38.857143t38.857143-16h475.428571q22.857143 0 38.857143 16t16 38.857143v237.714286zM579.597803 347.428571V164.571429q0-7.428571-5.428572-12.857143T561.312089 146.285714H451.597803q-7.428571 0-12.857143 5.428572T433.312089 164.571429v182.857142q0 7.428571 5.428571 12.857143T451.597803 365.714286h109.714286q7.428571 0 12.857142-5.428572T579.597803 347.428571z m365.714286 18.285715v530.285714q0 22.857143-16 38.857143t-38.857143 16H122.454946q-22.857143 0-38.857143-16t-16-38.857143V128q0-22.857143 16-38.857143t38.857143-16h530.285714q22.857143 0 50.285714 11.428572t43.428572 27.428571l160 160q16 16 27.428571 43.428571t11.428572 50.285715z" fill="#28A745" p-id="1345"></path></svg>