<svg width="100" height="100" viewBox="0 0 100 100" xmlns="http://www.w3.org/2000/svg"><title>Group 4</title><g fill="none" fill-rule="evenodd"><circle fill="#37B442" fill-rule="nonzero" cx="50" cy="50" r="50"/><path d="M77.473 40.262c-.515-.518-1.274-.814-2.077-.814-.804 0-1.563.296-2.08.815l-2.13 2.13 4.16 4.16 2.13-2.13a2.949 2.949 0 0 0-.003-4.16zM59.468 54.111l4.16 4.16 9.648-9.647-4.16-4.16-9.648 9.647zm-2.077 7.163l3.821-1.276-3.473-3.474-1.275 3.824a.732.732 0 0 0 .927.926zm.192 6.207c0-.81-.655-1.465-1.465-1.465h-8.79a1.464 1.464 0 1 0 0 2.93h8.79c.81 0 1.465-.656 1.465-1.465zm-21.925-7.325h14.6a1.464 1.464 0 1 0 0-2.93h-14.6a1.464 1.464 0 1 0 0 2.93zm-1.465-7.324c0 .81.655 1.465 1.465 1.465h14.6a1.464 1.464 0 1 0 0-2.93h-14.6c-.81 0-1.465.655-1.465 1.465zm0-5.86c0 .81.655 1.465 1.465 1.465h14.6a1.464 1.464 0 1 0 0-2.93h-14.6c-.81 0-1.465.656-1.465 1.466zm0-5.859c0 .81.655 1.465 1.465 1.465h20.46a1.464 1.464 0 1 0 0-2.93h-20.46c-.81 0-1.465.656-1.465 1.465zM64.8 61.243l1.61-1.57v10.933c0 2.423-2.01 4.394-4.434 4.394h-29.25a4.4 4.4 0 0 1-4.394-4.394V29.394A4.4 4.4 0 0 1 32.728 25H54.7v10.254c0 .81.608 1.465 1.418 1.465H66.41v6.345l-9.918 9.878a5.882 5.882 0 0 0-1.408 2.286l-1.399 4.189a3.674 3.674 0 0 0 .498 3.299c.69.955 1.8 1.526 2.973 1.526l.709-.039 4.658-1.555a5.82 5.82 0 0 0 2.277-1.405zm1.57-27.454h-8.817V25h.252a4.5 4.5 0 0 1 3.136 1.287l4.142 4.143a4.367 4.367 0 0 1 1.288 3.107v.252z" fill="#FFF"/></g></svg>