<?xml version="1.0" standalone="no"?><!DOCTYPE svg PUBLIC "-//W3C//DTD SVG 1.1//EN" "http://www.w3.org/Graphics/SVG/1.1/DTD/svg11.dtd"><svg t="1553589848988" class="icon" style="" viewBox="0 0 1024 1024" version="1.1" xmlns="http://www.w3.org/2000/svg" p-id="1314" xmlns:xlink="http://www.w3.org/1999/xlink" width="200" height="200"><defs><style type="text/css"></style></defs><path d="M1024 512q0 99.428571-68.571429 183.714286t-186.285714 133.142857-257.142857 48.857143q-40 0-82.857143-4.571429-113.142857 100-262.857143 138.285714-28 8-65.142857 12.571429-9.714286 1.142857-17.428571-5.142857t-10-16.571429l0-0.571429q-1.714286-2.285714 2.857143-6.857143t1.142857-5.714286 2.571429-5.428571l3.428571-5.142857 4-4.857143 4.571429-5.142857q4-4.571429 17.714286-19.714286t19.714286-21.714286 17.714286-22.571429 18.571429-29.142857 15.428571-33.714286 14.857143-43.428571q-89.714286-50.857143-141.428571-125.714286t-51.714286-160.571429q0-74.285714 40.571429-142t109.142857-116.857143 163.428571-78 198.857143-28.857143q139.428571 0 257.142857 48.857143t186.285714 133.142857 68.571429 183.714286z" fill="#2c9838" p-id="1315"></path></svg>