<?xml version="1.0" standalone="no"?><!DOCTYPE svg PUBLIC "-//W3C//DTD SVG 1.1//EN" "http://www.w3.org/Graphics/SVG/1.1/DTD/svg11.dtd"><svg t="1551755987795" class="icon" style="" viewBox="0 0 1024 1024" version="1.1" xmlns="http://www.w3.org/2000/svg" p-id="1203" xmlns:xlink="http://www.w3.org/1999/xlink" width="20" height="20"><defs><style type="text/css"></style></defs><path d="M512 849.69104501c-8.142447 0-15.950274-3.234671-21.707394-8.99179201l-255.82655-255.82655c-11.988032-11.989055-11.988032-31.425733 0-43.414789 11.989055-11.990079 31.426757-11.990079 43.415812-1e-8l234.118132 234.118132 234.11915501-234.11813199c11.988032-11.990079 31.426757-11.990079 43.41478899 0 11.989055 11.989055 11.989055 31.425733 0 43.414789l-255.82655 255.82655C527.950274 846.456375 520.14142399 849.691045 512 849.69104501z" fill="#2C9838" p-id="1204"></path><path d="M512 849.69104501c-16.954137 0-30.699186-13.745049-30.699186-30.69918601l0-613.983719c0-16.954137 13.745049-30.699186 30.699186-30.699186s30.699186 13.745049 30.699186 30.699186l0 613.983719C542.699186 835.945997 528.954137 849.691045 512 849.69104501z" fill="#2C9838" p-id="1205"></path></svg>