<?xml version="1.0" standalone="no"?><!DOCTYPE svg PUBLIC "-//W3C//DTD SVG 1.1//EN" "http://www.w3.org/Graphics/SVG/1.1/DTD/svg11.dtd"><svg t="1550738999455" class="icon" style="" viewBox="0 0 1024 1024" version="1.1" xmlns="http://www.w3.org/2000/svg" p-id="3514" id="mx_n_1550738999457" xmlns:xlink="http://www.w3.org/1999/xlink" width="20" height="20"><defs><style type="text/css"></style></defs><path d="M438.848 73.152q119.424 0 220.288 58.848t159.712 159.712T877.696 512t-58.848 220.288-159.712 159.712-220.288 58.848-220.288-58.848-159.712-159.712T0 512t58.848-220.288T218.56 132t220.288-58.848z m156.576 297.696q-1.152 0.576-5.44 5.44t-7.712 5.44q1.152 0 2.56-2.848t2.848-6.272 2.016-4q3.424-4 12.576-8.576 8-3.424 29.728-6.848 19.424-4.576 29.152 6.272-1.152-1.152 5.44-7.424t8.288-6.848q1.728-1.152 8.576-2.56t8.576-4.288l1.152-12.576q-6.848 0.576-10.016-4t-3.712-12q0 1.152-3.424 4.576 0-4-2.56-4.576t-6.56 0.576-5.152 0.576q-5.728-1.728-8.576-4.288t-4.576-9.44-2.272-8.576q-1.152-2.848-5.44-6.272t-5.44-5.728q-0.576-1.152-1.44-3.136t-1.728-3.712-2.272-3.136-3.136-1.44-4 2.848-4.288 5.728-2.56 2.848q-1.728-1.152-3.424-0.864t-2.56 0.576-2.56 1.728-2.848 2.016q-1.728 1.152-4.864 1.728t-4.864 1.152q8.576-2.848-0.576-6.272-5.728-2.272-9.152-1.728 5.152-2.272 4.288-6.848t-4.864-8h2.848q-0.576-2.272-4.864-4.864t-10.016-4.864-7.424-3.424q-4.576-2.848-19.424-5.44t-18.848-0.288q-2.848 3.424-2.56 6.016t2.272 8 2.016 7.136q0.576 3.424-3.136 7.424t-3.712 6.848q0 4 8 8.864t5.728 12.288q-1.728 4.576-9.152 9.152t-9.152 6.848q-2.848 4.576-0.864 10.56t6.016 9.44q1.152 1.152 0.864 2.272t-2.016 2.56-3.136 2.272-3.712 2.016l-1.728 1.152q-6.272 2.848-11.712-3.424t-7.712-14.848q-4-14.272-9.152-17.152-13.152-4.576-16.576 0.576-2.848-7.424-23.424-14.848-14.272-5.152-33.152-2.272 3.424-0.576 0-8.576-4-8.576-10.848-6.848 1.728-3.424 2.272-10.016t0.576-7.712q1.728-7.424 6.848-13.152 0.576-0.576 4-4.864t5.44-7.712 0.288-3.424q20 2.272 28.576-6.272 2.848-2.848 6.56-9.728t6.016-9.728q5.152-3.424 8-3.136t8.288 3.136 8.288 2.848q8 0.576 8.864-6.272t-4.288-11.424q6.848 0.576 1.728-9.728-2.272-4-4.576-5.152-6.848-2.272-15.424 2.848-4.576 2.272 1.152 4.576-0.576-0.576-5.44 6.016t-9.44 10.016-9.152-2.848q-0.576-0.576-3.136-7.712t-5.44-7.712q-4.576 0-9.152 8.576 1.728-4.576-6.272-8.576t-13.728-4.576q10.848-6.848-4.576-15.424-4-2.272-11.712-2.848t-11.136 2.272q-2.848 4-3.136 6.56t2.848 4.576 6.016 3.136 6.56 2.272 4.864 1.728q8 5.728 4.576 8-1.152 0.576-4.864 2.016t-6.56 2.56-3.424 2.272q-1.728 2.272 0 8t-1.152 8q-2.848-2.848-5.152-10.016t-4-9.44q4 5.152-14.272 3.424l-5.728-0.576q-2.272 0-9.152 1.152t-11.712 0.576-7.712-4.576q-2.272-4.576 0-11.424 0.576-2.272 2.272-1.152-2.272-1.728-6.272-5.44t-5.728-4.864q-26.272 8.576-53.728 23.424 3.424 0.576 6.848-0.576 2.848-1.152 7.424-3.712T288 181.728q19.424-8 24-4l2.848-2.848q8 9.152 11.424 14.272-4-2.272-17.152-0.576-11.424 3.424-12.576 6.848 4 6.848 2.848 10.272-2.272-1.728-6.56-5.728t-8.288-6.272-8.576-2.848q-9.152 0-12.576 0.576-83.424 45.728-134.272 126.848 4 4 6.848 4.576 2.272 0.576 2.848 5.152t1.44 6.272 6.56-1.728q5.152 4.576 1.728 10.848 0.576-0.576 25.152 15.424 10.848 9.728 12 12 1.728 6.272-5.728 10.272-0.576-1.152-5.152-5.152t-5.152-2.272q-1.728 2.848 0.288 10.56t6.016 7.136q-4 0-5.44 9.152t-1.44 20.288-0.576 13.44l1.152 0.576q-1.728 6.848 3.136 19.712t12.288 11.136q-7.424 1.728 11.424 24.576 3.424 4.576 4.576 5.152 1.728 1.152 6.848 4.288t8.576 5.728 5.728 6.016q2.272 2.848 5.728 12.864t8 13.44q-1.152 3.424 5.44 11.424t6.016 13.152q-0.576 0-1.44 0.576t-1.44 0.576q1.728 4 8.864 8t8.864 7.424q0.576 1.728 1.152 5.728t1.728 6.272 4.576 1.152q1.152-11.424-13.728-35.424-8.576-14.272-9.728-16.576-1.728-2.848-3.136-8.864t-2.56-8.288q1.152 0 3.424 0.864t4.864 2.016 4.288 2.272 1.152 1.728q-1.728 4 1.152 10.016t6.848 10.56 9.728 10.848 6.848 7.424q3.424 3.424 8 11.136t0 7.712q5.152 0 11.424 6.016t9.728 11.136q2.848 4.576 4.576 14.848t2.848 13.728q1.152 4 4.864 7.712t7.136 5.44l9.152 4.576 7.424 4q2.848 1.152 10.56 6.016t12.288 6.56q5.728 2.272 9.152 2.272t8.288-1.44 7.712-2.016q8.576-1.152 16.576 8.576t12 12q20.576 10.848 31.424 6.272-1.152 0.576 0.288 4.288t4.576 8.864 5.152 8.288 3.136 4.864q2.848 3.424 10.272 8.576t10.272 8.576q3.424-2.272 4-5.152-1.728 4.576 4 11.424t10.272 5.728q8-1.728 8-18.272-17.728 8.576-28-10.272 0-0.576-1.44-3.136t-2.272-4.864-1.44-4.864 0-4.288 2.848-1.728q5.152 0 5.728-2.016t-1.152-7.136-2.272-7.424q-0.576-4.576-6.272-11.424t-6.848-8.576q-2.848 5.152-9.152 4.576t-9.152-5.152q0 0.576-0.864 3.136t-0.864 3.712q-7.424 0-8.576-0.576 0.576-1.728 1.44-10.016t2.016-12.864q0.576-2.272 3.136-6.848t4.288-8.288 2.272-7.136-2.56-5.44-10.016-1.44q-10.848 0.576-14.848 11.424-0.576 1.728-1.728 6.016t-2.848 6.56-5.152 4q-4 1.728-13.728 1.152t-13.728-2.848q-7.424-4.576-12.864-16.576t-5.44-21.152q0-5.728 1.44-15.136t1.728-14.272-3.136-14.016q1.728-1.152 5.152-5.44t5.728-6.016q1.152-0.576 2.56-0.864t2.56 0 2.272-0.864 1.728-3.424q-0.576-0.576-2.272-1.728-1.728-1.728-2.272-1.728 4 1.728 16.288-0.864t15.712 0.864q8.576 6.272 12.576-1.152 0-0.576-1.44-5.44t-0.288-7.712q2.848 15.424 16.576 5.152 1.728 1.728 8.864 2.848t10.016 2.848q1.728 1.152 4 3.136t3.136 2.56 2.848-0.288 4.864-3.712q5.728 8 6.848 13.728 6.272 22.848 10.848 25.152 4 1.728 6.272 1.152t2.56-5.44 0-8-0.864-7.136l-0.576-4.576v-10.272l-0.576-4.576q-8.576-1.728-10.56-6.848t0.864-10.56 8.576-10.56q0.576-0.576 4.576-2.016t8.864-3.712 7.136-4.576q12-10.848 8.576-20 4 0 6.272-5.152-0.576 0-2.848-1.728t-4.288-2.848-2.56-1.152q5.152-2.848 1.152-9.152 2.848-1.728 4.288-6.272t4.288-5.728q5.152 6.848 12 1.152 4.576-4.576 0.576-9.152 2.848-4 11.712-6.016t10.56-5.44q4 1.152 4.576-1.152t0.576-6.848 1.728-6.848q2.272-2.848 8.576-5.152t7.424-2.848l9.728-6.272q1.728-2.272 0-2.272 10.272 1.152 17.728-6.272 5.728-6.272-3.424-11.424 1.728-3.424-1.728-5.44t-8.576-3.136q1.728-0.576 6.56-0.288t6.016-0.864q8.576-5.728-4-9.152-9.728-2.848-24.576 6.848zM502.272 872q117.728-20.576 200.576-108-1.728-1.728-7.136-2.56t-7.136-2.016q-10.272-4-13.728-4.576 0.576-4-1.44-7.424t-4.576-5.152-7.136-4.576-6.272-4q-1.152-1.152-4-3.424t-4-3.136-4.288-2.56-4.864-1.152-5.728 0.576l-1.728 0.576q-1.728 0.576-3.136 1.44t-3.136 1.728-2.272 1.728 0 1.44q-12-9.728-20.576-12.576-2.848-0.576-6.272-3.136t-6.016-4-5.728-0.864-6.56 4q-2.848 2.848-3.424 8.576t-1.152 7.424q-4-2.848 0-10.016t1.152-10.56q-1.728-3.424-6.016-2.56t-6.848 2.56-6.56 4.864-5.152 3.712-4.864 3.136-4.864 4.288q-1.728 2.272-3.424 6.848t-2.848 6.272q-1.152-2.272-6.56-3.712t-5.44-3.136q1.152 5.728 2.272 20t2.848 21.728q4 17.728-6.848 27.424-15.424 14.272-16.576 22.848-2.272 12.576 6.848 14.848 0 4-4.576 11.712t-4 12.288q0 3.424 1.152 9.152z" fill="#ffffff" p-id="3515"></path></svg>