<?xml version="1.0" standalone="no"?><!DOCTYPE svg PUBLIC "-//W3C//DTD SVG 1.1//EN" "http://www.w3.org/Graphics/SVG/1.1/DTD/svg11.dtd"><svg t="1550570490441" class="icon" style="" viewBox="0 0 1024 1024" version="1.1" xmlns="http://www.w3.org/2000/svg" p-id="810" xmlns:xlink="http://www.w3.org/1999/xlink" width="20" height="20"><defs><style type="text/css"></style></defs><path d="M511.3 512.2m-448.9 0a448.9 448.9 0 1 0 897.8 0 448.9 448.9 0 1 0-897.8 0Z" fill="#ffffff" p-id="811"></path><path d="M320.6 494.4c-1.7 0-3.1 0.2-4.1 0.7 1.5-0.4 3-0.7 4.6-0.7h-0.5z m474.7 189.1c0-0.9 0.2-1.7 0.3-2.6-0.1 0.5-0.2 1.3-0.3 2.6zM827 334.1v-0.5 0.5z m-31.7 0v-0.5 0.5z m19.1 475.2c-4.4-33.1-14.2-65.3-29-95.3-2.9-5.9-5.9-11.6-9.2-17.3v-0.1c-14.2-24-31.5-46.1-51.4-65.6-4.4-4.3-8.9-8.5-13.5-12.5-33.1-29-71.2-50.4-111.9-63.5 7.4-4.1 14.5-8.7 21.3-13.7 7.9-5.8 15.3-12.2 22.2-19.1 36.7-36.7 56.9-85.5 56.9-137.4s-20.2-100.7-56.9-137.3c-36-36-83.7-56.1-134.5-56.9h-4.8c-50.8 0.7-98.5 20.9-134.5 56.9-36.7 36.7-56.9 85.5-56.9 137.3 0 51.9 20.2 100.7 56.9 137.4 6.9 6.9 14.3 13.3 22.2 19.1 6.8 5 13.9 9.6 21.3 13.7-40.7 13.1-78.9 34.5-111.9 63.5-4.6 4-9.1 8.2-13.5 12.5-19.9 19.6-37.2 41.6-51.5 65.7-3.2 5.7-6.3 11.4-9.2 17.3-14.8 30-24.5 62.1-29 95.3-1.4 10.6 6 20.4 16.7 21.8 1.6 0.2 3.3 0.2 5 0 7.9-1.7 13.9-8.2 15.1-16.2 9-61.4 38.2-117.3 80.3-159.8 50-50.5 117.9-82.2 191.4-82.3h0.4c73.3 0.2 141.1 31.9 191 82.3 42.1 42.5 71.4 98.3 80.3 159.8 1.2 8 7.2 14.4 15 16.2 0.8 0.1 1.5 0.1 2.3 0.1 10.7 0 19.4-8.7 19.4-19.4 0.2-0.7 0.2-1.6 0-2.5z m-308.8-269h-1.2c-72.5-0.5-137.1-50.9-154.8-118.5-3.2-12-4.8-24.5-4.8-36.9 0-12.6 1.6-25.1 4.8-37.3 17.8-69.3 83-124.3 156-124.3h0.8c73 0 138.2 55.1 156 124.3 3.2 12.2 4.8 24.7 4.8 37.3 0 12.5-1.6 24.9-4.8 36.9-17.7 67.6-82.3 117.9-154.8 118.5h-2z" fill="#B6BECE" p-id="812"></path></svg>