<?xml version="1.0" standalone="no"?><!DOCTYPE svg PUBLIC "-//W3C//DTD SVG 1.1//EN" "http://www.w3.org/Graphics/SVG/1.1/DTD/svg11.dtd"><svg t="1550570519107" class="icon" style="" viewBox="0 0 1024 1024" version="1.1" xmlns="http://www.w3.org/2000/svg" p-id="810" xmlns:xlink="http://www.w3.org/1999/xlink" width="20" height="20"><defs><style type="text/css"></style></defs><path d="M648.5375 887.3875C648.4 962.8625 587.85 1024 512 1024c-75.325 0-136.4-60.8875-136.5375-136.6125L648.5375 887.3875 648.5375 887.3875zM603.025 91.025C603.025 40.85 562.275 0 512 0c-50.1625 0-91.025 40.75-91.025 91.025 0 5.125 0.425 10.15 1.2375 15.0375C296.525 149.875 193.425 284.4 193.425 443.575l0 125.3125c0 0 0 180.475-44.3375 182.05-26.4375 0-46.6875 20.375-46.6875 45.5125 0 25.3125 20.375 45.5125 45.5 45.5125L512 841.9625l318.575 0 45.5125 0c25.25 0 45.5-20.375 45.5-45.5125 0-25.3125-20.375-45.5125-45.5-45.5125-45.5125 0-45.5125-180.775-45.5125-180.775L830.575 443.5875c0-159.375-96.4125-293.975-228.775-337.65C602.6125 101.0875 603.025 96.1 603.025 91.025z" fill="#ffffff" p-id="811"></path></svg>