<svg xmlns="http://www.w3.org/2000/svg" width="925" height="96" viewBox="-216.5 0 925 96"><path fill="#E30613" d="M-169.009 94.955c26.016 0 47.145-21.109 47.145-47.145 0-26.04-21.128-47.146-47.145-47.146-26.049 0-47.168 21.106-47.168 47.146 0 26.036 21.118 47.145 47.168 47.145"/><path fill="#FFF" d="M-169.022 88.924c22.705 0 41.13-18.425 41.13-41.149 0-22.718-18.425-41.137-41.13-41.137-22.74 0-41.145 18.418-41.145 41.137 0 22.724 18.404 41.149 41.145 41.149m-39.261-41.155c0-21.688 17.559-39.246 39.26-39.246 21.659 0 39.226 17.558 39.226 39.246 0 21.679-17.566 39.259-39.226 39.259-21.701 0-39.26-17.58-39.26-39.259"/><path fill="#FFF" d="M-169.97 26.991h-2.859c-.544 0-.964-.454-.964-1.009 0-.577.419-1.021.964-1.021h2.859V15.83h-6.864l1.666 12.786h-9.599s3.618 24.759-6.13 45.415c5.812.03 12.824 0 12.824 0h-.033c6.737-19.024 5.996-21.276 5.996-21.276h2.139v-8.501h-2.161a.991.991 0 0 1-.979-.998c0-.585.428-1.043.979-1.043h2.161V26.991zm1.94 0h2.802c.534 0 .965-.454.965-1.009 0-.577-.431-1.021-.965-1.021h-2.802V15.83h6.811l-1.661 12.786h9.64s-3.659 24.759 6.095 45.415c-5.825.03-12.831 0-12.831 0-6.744-19.024-5.975-21.276-5.975-21.276h-2.079v-8.501h2.117c.542 0 .979-.461.979-.998 0-.585-.437-1.043-.979-1.043h-2.117V26.991z"/><path fill="#E30613" d="M-176.808 42.263v-3.829c0-.855-.641-1.531-1.427-1.531-.794 0-1.453.675-1.461 1.51v3.85h2.888zm-2.888 1.922v8.006c0 .416.149.798.408 1.076.278.289.646.442.998.442.396.009.754-.163 1.057-.45.252-.279.426-.661.426-1.047v-8.027h-2.889zm3.718 10.439l-.171.157.87 3.342c.124.498-.158 1.048-.654 1.162-.484.159-.971-.15-1.109-.677l-.791-3.016c-.147.012-.305.034-.47.034l-.377-.034-.775 3.016c-.147.526-.629.836-1.105.677-.521-.114-.804-.664-.664-1.162l.854-3.325-.19-.161c-.635-.666-.959-1.52-.959-2.446V38.413c0-1.873 1.486-3.411 3.301-3.404 1.775.006 3.227 1.544 3.217 3.425v13.778a3.389 3.389 0 0 1-.977 2.412m16.242-7.492l-1.92-3.918 1.92-3.927 1.924 3.927-1.924 3.918zm3.929-3.919l-3.929-8.033-3.932 8.033 3.042 6.181v8.951c0 .542.404.962.894.962.507 0 .922-.42.922-.962v-8.978l3.003-6.154z"/><path fill="#1D1D1B" d="M692.977 46.825l14.033-15.533h-9.816L681.94 48.378V31.292h-7.974v39.074h7.974V58.11l5.708-5.481 11.216 17.737h9.313zM445.56 54.014h17.211v-7.108H445.56V38.4h19.413v-7.108h-27.388v39.074h27.6v-7.107H445.56zm-22.454-6.662l-6.763-1.606c-2.717-.736-5.504-1.823-5.504-4.324 0-2.196 1.832-4.408 5.934-4.408 3.762 0 6.463 1.454 7.799 4.208l.22.467 6.898-2.695-.162-.498c-1.646-5.134-7.198-8.322-14.482-8.322-8.248 0-14.007 4.845-14.007 11.787 0 7.363 4.792 9.568 9.5 10.757l6.87 1.545c2.417.711 4.905 1.798 4.961 4.491v.811c0 1.502-.712 2.673-2.102 3.492-1.194.703-3.204 1.141-5.223 1.141-4.2 0-7.657-2.071-9.021-5.404l-.206-.515-7.186 2.813.158.502c1.877 5.92 8.024 9.601 16.04 9.601 8.89 0 15.344-5.096 15.344-12.114v-.798c-.027-5.856-3.079-9.533-9.068-10.931m-58.789-16.94c-10.845 0-15.693 7.297-15.693 14.525v12.706c0 9.348 8.279 13.607 15.968 13.607 7.336 0 14.741-4.025 14.741-13.021v-8.644h-17.472v7.268h9.871v.729c0 4.49-3.589 6.498-7.141 6.498-2.193 0-4.208-.644-5.668-1.802-1.561-1.236-2.384-2.969-2.384-5.011V44.571c0-4.835 3.901-6.992 7.777-6.992 1.739 0 7.415.431 7.415 6.012v.957h7.601v-1.592c.001-5.783-3.935-12.544-15.015-12.544m130.638 26.103l-15.924-24.964-.166-.261h-7.56v39.076h7.701V45.105l16.028 25.261h7.622V31.29h-7.701zM658.771 31.29v25.23l-15.919-24.969-.169-.261h-7.557v39.076h7.699V45.108l16.023 25.258h7.63V31.29zm-133.547-.878c-10.842 0-15.696 7.297-15.696 14.525v12.706c0 9.348 8.277 13.607 15.965 13.607 7.329 0 14.729-4.025 14.729-13.021v-8.644h-17.453v7.268h9.857v.492c0 4.491-3.582 6.496-7.133 6.496-5.571 0-8.058-3.305-8.058-6.573V44.571c0-4.835 3.909-6.992 7.789-6.992 3.572 0 7.401 1.579 7.401 6.012v.957h7.596v-1.592c0-5.783-3.928-12.544-14.997-12.544m93.107 24.85h-9.394l4.724-13.78 4.67 13.78zm-8.068-23.972l-14.53 39.077h8.036l2.893-8.149h13.995l2.789 8.149h8.35L617.379 31.29h-7.116zM580.28 47.009h-7.995v-8.817h7.676c3.711 0 5.596 1.444 5.596 4.304 0 2.868-1.927 4.513-5.277 4.513m-7.995 6.846h8.586c3.869 0 5.746 1.526 5.746 4.672 0 3.14-2.117 4.941-5.805 4.941h-8.527v-9.613zm16.26-4.229c3.237-1.778 4.812-4.422 4.812-8.043 0-6.638-4.342-10.293-12.209-10.293H564.31v39.077h17.748c6.007 0 12.474-3.568 12.474-11.411-.001-4.483-2.184-7.889-5.987-9.33M258.723 31.29v15.616h-14.922V31.29h-7.975v39.076h7.975V54.014h14.922v16.352h7.969V31.29zm75.024 0v25.225l-15.916-24.964-.168-.261h-7.566v39.076h7.703V45.103l16.023 25.263h7.626V31.29zm-40.781 23.972h-9.396l4.724-13.772 4.672 13.772zm-.947-23.972h-7.125l-14.516 39.077h8.027l2.89-8.149h13.997l2.791 8.149h8.351L292.019 31.29zM18.206 20.812c-1.487 4.224-1.006 9.537-1.06 14 .764.867 2.179.432 3.273.432 2.531-.285 6.066-1.747 7.958.684.425 1.036.748 2.233.656 3.363-1.375.476-2.927.439-4.238.667-2.602.876-6.127.56-7.416 3.464-.374 1.134-.374 2.37-.05 3.521l.818.708c3.496-.708 6.591.545 9.793 1.117 1.237 1.185 1.939 2.998 1.939 4.668l-.531.389c-3.774-.389-7.567.085-11.348-.077-1.66.647-1.66 2.513-2.261 3.81-.159 1.613-1.223 4.276.667 5.284 2.738.777 5.69-.476 8.586.172 4.099.803 9.501.167 11.356 4.598.042 1.409-.347 2.674-1.097 3.721-1.566 0-2.92-.983-4.562-1.09-4.882-.396-14.487-1.515-15.147-1.43-.697.104-6.289.872-8.719 3.004-1.643 1.071-3.959.514-5.588 1.488-2.662.313-5.538.875-8.135.159-1.788.106-3.181 1.428-4.801 1.574-.714-2.013-.943-4.277-1.347-6.413-.295-.879.296-1.488.794-2.137 1.24-.49 2.098 1.029 3.312 1.123 3.393.443 6.617-1.229 10.177-1.329l7.844-2.466c1.692-1.566 1.916-4.145 1.433-6.401-.229-.244-.457-.729-.84-.57-1.83.506-3.854.661-5.772.827-1.308.417-2.449 1.305-3.804 1.499-1.656-1.867-1.564-4.711-1.624-7.023 1.624-.447 3.148.476 4.931.146a32.6 32.6 0 0 0 7.23-2.27c1.656-1.354 1.008-3.86.549-5.531-1.229-.48-2.689-.118-3.94 0-2.154.207-4.22 1.298-6.442.916-1.393-1.336-1.504-3.189-2.636-4.649-1.377.117-1.534 1.694-2.572 2.268-2.849 2.705-7.076 2.811-10.701 3.6-.278-.217-.708-.179-.828-.628.549-1.566 2.365-2.579 2.921-4.22 1.467-1.468 3.254-2.749 4.232-4.495 2.912-3.014 5.57-6.325 6.664-10.167.197-.622-.159-1.521.649-1.739 1.95.109 2.92 2.615 4.655 3.359.671.369 1.419.532 1.833 1.306v.794c-2.428 1.898-6.446 3.642-5.723 7.38 1.939 1.183 4.603 1.315 6.821 1.238 1.44-1.025 3.4-.91 5.025-1.728.972-.707.925-1.849 1.146-2.917-.648-4.35 1.081-9.615-1.776-13.172.573-1.149 2.117-1.085 3.282-1.456 1.533.856 3.586-1.355 4.414.629m61.925 2.106c1.148.356 2.276 1.212 2.97 2.28-.413 2.11-3.546.381-4.044 2.752-.127 1.69.654 3.856-.319 5.377-1.748 1.673-3.021 3.52-3.426 5.751-.052.544.404.697.755.961.711.206 1.296-.179 1.691-.813.323-.638-.04-1.63.818-2.1 1.036-.185 2.214-.32 3.176-.185.283.389.337.989.872 1.099.982.275 2.392-.592 2.702.549.057 3.14-4.976 3.35-3.994 6.491.388.758 1.395.314 1.954.107.967-.154 2.316-1.126 3.083-.107.337 2.773-1.834 4.551-3.574 6.326-.814.712-2.218.635-2.485 1.922 0 .786-.504 2.106.366 2.578 1.84-.472 3.096-2.514 5.043-2.762.821.084.987.97 1.229 1.531-.031 1.372 1.056 2.333.677 3.676-.555.386-1.084-.068-1.636 0-1.777.808-3.301 2.329-5.198 2.646-.872.604-.815 1.755-.659 2.558 1.621.982 3.155-1.211 4.885-.326 1.239 4.427-3.585 6.279-6.165 8.631-3.178 1.398-6.789 1.917-10.355 2.089-1.407.228-2.655 1.806-4.075.99-1.026-.99-1.511-2.32-1.291-3.783.77-.561 1.636.096 2.46.155 1.934-.468 3.543-1.751 5.465-2.39 1.509-.78 3.548-1.089 4.423-2.759.547-3.273.59-6.675.932-10.025-1.354-1.697-3.201.116-4.768.326-1.146-.104-2.828 2.15-3.374-.064-.084-1.449-1.511-2.535-1.05-4.177 1.004-.915 2.499-.816 3.869-1.014 1.956-1.467 5.691-.819 6.119-4.017-.032-.598-.325-1.186-.903-1.456-1.896.27-3.854 2.117-5.539.15-4.451 2.831-7.956 8.209-13.79 7.342-.488-.522.158-1.006.428-1.483 2.65-4.127 6.498-7.91 8.978-12.171 4.082-3.488 5.043-8.23 9.052-11.758.637-1.163.756-3.194 2.589-3.254 1.201-.892-1.833-2.986.719-2.613l1.39.97z"/><path fill="#1D1D1B" d="M88.805 31.894c.495.232.599.785.44 1.176-.536 1.452-2.054 1.864-3.257 2.261-2.702-.397-2.979-3.364-4.332-5.092 0-.264-.064-.596.27-.761 2.282.814 4.544 1.732 6.879 2.416"/><path fill="#1D1D1B" d="M105.707 47.193c-2.006.662-3.522 2.437-5.535 3.136l-.146 1.024c.146.837.899 1.407 1.61 1.794 2.503 1.484 4.008-1.403 5.806-2.539.467-.755 1.744-1.339 1.366-2.432-.545-1.12-2.03-.778-3.101-.983m-2.261-8.992c-1.905.952-3.788 2.102-5.858 2.674-1.248.689-1.149 2.259-1.201 3.543.162.769.117 1.867 1.201 1.753l4.659-2.111c2.041-.838 1.612-3.256 2.268-4.984-.066-.488-.536-.981-1.069-.875m1.281-10.506l-5.022 2.595c-1.195.712-2.814.216-3.675 1.725-.396 1.203-.62 3.108.409 3.906 3.365-.922 6.716-2.097 9.302-4.663.255-1.02.784-2.11.385-3.219-.303-.503-.906-.224-1.399-.344m4.727-6.647c1.664 1.293 3.461 2.466 4.873 4.148.272 1.345-1.806 1.345-1.525 2.649.655 3.7-1.142 6.51-1.295 9.871a57.091 57.091 0 0 0-.983 7.471c0 .375.106 1.099.716.984.696-.287 1.396-.166 1.951.379.851 1.305 2.537 2.306 2.37 3.894-.588.6-1.579.206-2.211.709-1.017 1.607-2.334 2.887-3.786 4.108-.295.373-.231.996-.109 1.352 2.756 2.411 5.641 4.809 9.036 5.945 3.872 1.3 7.838 2.252 11.582 3.922.057.052.224.21.167.364-4.098 2.624-9.736 1.41-14.512 2.29-2.759.207-5.303-.994-6.459-3.466-3.144-3.131-5.065-7.168-8.592-9.627.068-1.65-1.146-2.71-2.239-3.852-.373-.271-.8-.617-1.235-.15-1.298 2.243-.312 5.513-.815 7.915-.113 1.716-.924 3.437-.166 5.053 1.046.064 1.809-1.028 2.824-1.295 1.241-.407 2.221-1.832 3.691-1.621.473.926-.122 1.951-.442 2.817-1.741 4.865-7.105 8.027-11.259 10.373-1.46.125-2.29 2.575-3.966 1.421-.97-1.726-4.108-2.974-3.255-5.548.757-.651 2.018 0 2.824-.561 4.396-1.622 3.086-6.83 4.396-10.392.361-2.65 1.163-5.198.863-8.163-.702-2.952.362-6.116-.334-8.906-.057-3.908.93-7.846-.82-11.531-.412-1.628-1.236-3.468-.543-5.264l.543-.313c3.143 1.616 6.522-.152 9.245-1.579 2.849-.933 5.432-2.657 8.423-3.458l1.042.061zM74.18 60.839c-.168 2.716-1.854 5.104-4.279 6.426-2.28.185-2.381-2.257-3.346-3.552-.11-1.445 1.714-.602 2.539-1.076 1.563-.703 2.968-1.91 4.764-2.128l.322.33zM-53.142 40.278c-5.283 2.772-10.842 4.607-15.937 7.589-.555.475-.831 1.268-.173 1.736 1.514.442 2.94-.3 4.459-.468 2.91-.99 5.767-1.97 8.721-2.874.695-.404 1.352.21 1.759.805.5 1.326-.141 2.592-.954 3.627-3.696 1.947-7.75 2.912-11.765 3.958-.58.181-1.131.579-1.334 1.228 0 .492-.132 1.193.431 1.558 2.176.501 4.608.133 6.692-.364 2.98-1.396 7.876-.701 8.745-4.875-.329-3.855 1.514-6.774.869-10.77.096-.891-.707-1.34-1.513-1.15m6.924-3.407c1.218 1.364 4.772.603 3.949 3.319l-2.443 3.691c-.326 4.265-2.065 7.898-2.336 12.17-.697 1.472-.896 4.076-2.97 3.943-1.412-.751-2.625.453-3.952.63-3.95.604-7.526 2.656-11.652 2.32-1.586-.497-3.355.263-5.028.095-.693-.88-.333-2.166-.663-3.191-1.916-5.427-2.146-11.505-3.842-17.056.12-.437.332-.879.753-1.152.879-.322 1.905-.044 2.761.104 5.193-1.621 10.029-4.171 15.44-5.355 3.059-2.755 6.836-.059 9.983.482m-39.123-16.99c0 .903-.922 1.465-1.234 2.196-1.308 2.46-.115 5.266.58 7.537-.308 3.801.984 7.104 1.365 10.664-.315 3.252-.038 6.367.093 9.601.123 5.855-.26 12.023-.345 17.883-.553 2.106-.172 4.646-.633 6.812-1.656 3.171-6.044 1.948-9.085 2.352l-.18-.516c3.38-9.844 3.434-20.806 4.63-31.557.311-4.663.734-9.673.262-14.268.755-3.076-.152-6.048-1.881-8.389 1.225-1.136 2.853-1.303 4.169-2.316.585-.394 1.843-.98 2.259.001m37.439 3.194c.491 1.464-.223 3.033-.324 4.538-2.499 3.139-5.958 5.275-9.754 5.905-3.26 3.033-8.065 3.2-12.346 2.589-2.213-.926-1.806-3.616-1.978-5.57 1.608-.92 3.545.783 5.056-.472 3.415-1.424 6.773-2.782 10.403-3.597 2.875-1.001 4.833-4.854 8.202-4.223l.741.83z"/><path fill="#1D1D1B" d="M-74.458 29.287c.113.615.35 1.299.242 1.893-2.336 1.079-4.122 3.424-6.864 3.584-1.221-.328-2.906.069-3.717-.963-.433-1.756 1.948-2.055 2.34-3.586.796-1.667 2.701-2.417 3.192-4.21 2.421-1.227 3.02 2.206 4.807 3.282m-21.261 10.072c1.006 3.111 1.118 7.318-.12 10.357-1.147 1.564-3.194 1.411-4.937 1.411-1.18-.107-2.34-.708-2.925-1.823-.055-2.344 1.634-4.032 2.503-6.032 1.452-1.631 2.374-3.593 3.829-5.094.857-.379 1.369.533 1.65 1.181m55.785 25.049c3.623 0 2.316 4.105 3.68 6.116.046.863-.919.532-1.398.755-5.092-1.797-10.958-.544-16.254-.141-1.907.459-3.638 1.326-5.369 2.146-4.512 1.076-9.149 1.834-13.978 2.175-1.903-.55-3.999-.125-5.524.951-.431 0-.922-.36-1.046-.797-.365-1.866-.257-3.9-1.072-5.6-.221-.531.326-.861.644-1.118 1.044-.22 1.744.373 2.645.373 3.712-.224 7.337.099 10.469-1.507 2.708-.377 5.144-1.578 7.959-1.792 4.011-.558 7.493-3.3 12.042-2.06 2.136.911 4.819.001 7.202.499m203.989-43.575c-1.253.383-.646 1.858-1.142 2.725-2.331 4.007-5.584 8.02-8.818 11.276-.151.259-.151.588.155.738a20.97 20.97 0 0 0 1.811.086c1.203 0 2.409-.133 3.441-.521 4.072-.901 4.932-5.684 8.242-7.703.64-.688 2.973.24 2.27-1.598-.316-1.24-1.704-1.93-2.6-2.548-1.297-.597-1.831-2.397-3.359-2.455m31.866 1.56c-4.196.795-8.197 2.452-12.103 3.951-.418.219-.859.292-1.311.292-.426 0-.856-.066-1.287-.129-.433-.064-.858-.13-1.275-.13-.519 0-1.017.101-1.474.43-.433 1.901 1.2 3.362 1.515 5.064.499 1.291 1.27 1.682 2.167 1.682.683 0 1.437-.223 2.204-.444.771-.223 1.557-.443 2.293-.443.207 0 .405.017.602.055 2.214-1.143 4.337-2.653 6.75-3.318 2.235-1.077 3.683-3.294 3.636-5.798.047-1.043-.964-1.043-1.717-1.212m4.153 11.982c-7.442 0-13.966 4.28-20.907 6.162a8.084 8.084 0 0 1-2.069.252c-1.168 0-2.306-.195-3.613-.252-.69.246-.265 1.061-.388 1.65.872 1.52 1.146 3.304 1.854 4.934.311.62.936 1.089 1.6 1.089.134 0 .267-.016.398-.057 1.621-2.255 4.35-2.128 6.733-2.724 1.941-.466 3.292-1.812 5.43-1.812.075 0 .147.002.223.004.778.128 1.56 1.919 2.213 3.024 1.886 3.182.644 7.368 1.339 11.045-.651 3.183.502 7.099-.897 9.939-1.095 2.676-3.556 2.629-5.555 3.504-1.241.584-2.827.532-3.835 1.331.15.703.893.965 1.384 1.458 4.45 1.917 9.84 1.072 14.814 1.655l.5-.46c.426-4.495-.717-6.095-.352-9.304-.756-3.954.096-7.43-.783-10.638-.045-1.803.182-4.183-.463-5.607-.229-2.33-2.558-4.498-3.076-5.844-.155-.939-.491-2.324.122-2.739 1.344-.84 2.971-.982 4.664-.982.426 0 .853.009 1.283.017.43.009.859.02 1.285.02 1.59 0 3.134-.126 4.442-.841.371-1.06-.47-2.1-.771-3.139l-1.13-1.156a18.746 18.746 0 0 0-4.445-.529m-35.501.548c-.218 0-.418.092-.551.344-.671 2.353-2.227 4.36-3.44 6.479-2.919 2.825-5.682 6.994-9.412 8.839-2.987 1.854-5.103 4.973-8.123 6.663l-.112.742c1.464.683 3.568.382 5.364.563.122.003.239.008.361.008 4.35 0 7.261-3.54 10.518-6.182.695-.182 1.134-1.626 1.92-1.626a.82.82 0 0 1 .447.146c.489 1.776-.24 3.706-.558 5.426-.434 5.595-1.041 11.056-3.905 15.637 0 .477-.855 1.502.164 2.038.172.128 1.105.253 2.217.253 1.318 0 2.885-.175 3.717-.737 1.318-.396 1.572-2.06 2.048-3.012.332-4.023 1.74-7.979.987-11.964.3-3.574-.339-7.225-2.104-10.161-.399-2.68-.283-5.385 1.4-7.429.434-.438.937-.537 1.473-.537.229 0 .462.018.7.036.235.019.479.036.724.036.178 0 .353-.009.531-.036.437-.226.686-.657.603-1.142l-4.081-4.041c-.248-.169-.584-.343-.888-.343"/></svg>