<?xml version="1.0" standalone="no"?><!DOCTYPE svg PUBLIC "-//W3C//DTD SVG 1.1//EN" "http://www.w3.org/Graphics/SVG/1.1/DTD/svg11.dtd"><svg t="1551755868117" class="icon" style="" viewBox="0 0 1024 1024" version="1.1" xmlns="http://www.w3.org/2000/svg" p-id="1172" xmlns:xlink="http://www.w3.org/1999/xlink" width="20" height="20"><defs><style type="text/css"></style></defs><path d="M174.30895499 512c0-8.142447 3.234671-15.950274 8.99179201-21.707394l255.82655-255.82655c11.989055-11.988032 31.425733-11.988032 43.414789 0 11.990079 11.989055 11.990079 31.426757 1e-8 43.415812l-234.118132 234.118132 234.11813199 234.11915501c11.990079 11.988032 11.990079 31.426757 0 43.41478899-11.989055 11.989055-31.425733 11.989055-43.414789 0l-255.82655-255.82655C177.543625 527.950274 174.308955 520.14142399 174.30895499 512z" fill="#2C9838" p-id="1173"></path><path d="M174.30895499 512c0-16.954137 13.745049-30.699186 30.69918601-30.699186l613.983719 0c16.954137 0 30.699186 13.745049 30.699186 30.699186s-13.745049 30.699186-30.699186 30.699186l-613.983719 0C188.054003 542.699186 174.308955 528.954137 174.30895499 512z" fill="#2C9838" p-id="1174"></path></svg>